<?xml version="1.0" encoding="UTF-8" standalone="no"?>
<!-- Created with Inkscape (http://www.inkscape.org/) -->

<svg
   xmlns:dc="http://purl.org/dc/elements/1.1/"
   xmlns:cc="http://creativecommons.org/ns#"
   xmlns:rdf="http://www.w3.org/1999/02/22-rdf-syntax-ns#"
   xmlns:svg="http://www.w3.org/2000/svg"
   xmlns="http://www.w3.org/2000/svg"
   xmlns:sodipodi="http://sodipodi.sourceforge.net/DTD/sodipodi-0.dtd"
   xmlns:inkscape="http://www.inkscape.org/namespaces/inkscape"
   width="45"
   height="45"
   id="svg4387"
   version="1.1"
   inkscape:version="0.48.2 r9819"
   sodipodi:docname="conveyorToIcon.svg">
  <defs
     id="defs4389" />
  <sodipodi:namedview
     id="base"
     pagecolor="#ffffff"
     bordercolor="#666666"
     borderopacity="1.0"
     inkscape:pageopacity="0.0"
     inkscape:pageshadow="2"
     inkscape:zoom="7.2780295"
     inkscape:cx="2.4915187"
     inkscape:cy="4.53888"
     inkscape:document-units="px"
     inkscape:current-layer="layer1"
     showgrid="false"
     fit-margin-top="0"
     fit-margin-left="0"
     fit-margin-right="0"
     fit-margin-bottom="0"
     inkscape:window-width="1920"
     inkscape:window-height="1028"
     inkscape:window-x="-8"
     inkscape:window-y="-8"
     inkscape:window-maximized="1"
     showguides="true"
     inkscape:guide-bbox="true" />
  <metadata
     id="metadata4392">
    <rdf:RDF>
      <cc:Work
         rdf:about="">
        <dc:format>image/svg+xml</dc:format>
        <dc:type
           rdf:resource="http://purl.org/dc/dcmitype/StillImage" />
        <dc:title></dc:title>
      </cc:Work>
    </rdf:RDF>
  </metadata>
  <g
     inkscape:label="Layer 1"
     inkscape:groupmode="layer"
     id="layer1"
     transform="translate(-307.06344,-304.88808)">
    <path
       style="font-size:medium;font-style:normal;font-variant:normal;font-weight:normal;font-stretch:normal;text-indent:0;text-align:start;text-decoration:none;line-height:normal;letter-spacing:normal;word-spacing:normal;text-transform:none;direction:ltr;block-progression:tb;writing-mode:lr-tb;text-anchor:start;baseline-shift:baseline;color:#000000;fill:#000000;fill-opacity:1;stroke:none;stroke-width:1;marker:none;visibility:visible;display:inline;overflow:visible;enable-background:accumulate;font-family:Sans;-inkscape-font-specification:Sans"
       d="M 13.21875 8 C 11.30354 8.0971 9.42162 8.50594 7.71875 9.4375 C 8.56639 10.40402 9.38506 11.39648 10.21875 12.375 C 10.66669 12.74966 10.94614 13.73729 11.65625 13.25 C 13.78325 12.80872 15.96521 13.075 18.125 13 L 18.125 8 L 15.15625 8 C 14.51904 7.9713 13.85714 7.9676 13.21875 8 z M 20.8125 8 L 20.8125 13 L 30.28125 13 L 30.28125 8 L 20.8125 8 z M 32.96875 8 L 32.96875 13 L 43.65625 13 L 43.65625 8 L 32.96875 8 z M 5.5625 10.96875 C 2.79529 13.58337 1.56288 17.4334 1.375 21.15625 L 6.40625 21.15625 C 6.54225 18.89119 7.05246 16.46915 8.71875 14.8125 C 7.67259 13.52642 6.59393 12.26665 5.5625 10.96875 z M 16.375 17.0625 C 14.87601 17.1173 13.40656 17.73573 12.40625 18.875 C 10.10766 21.2557 10.71829 25.60445 13.625 27.21875 C 16.39634 29.00598 20.5651 27.59306 21.59375 24.4375 C 22.8641 21.25897 20.47086 17.31329 17.03125 17.0625 C 16.81722 17.0469 16.58913 17.0545 16.375 17.0625 z M 1.375 23.84375 C 1.61531 27.52369 3.01967 31.22584 5.78125 33.75 C 6.84865 32.48329 7.90631 31.20838 8.96875 29.9375 C 7.17716 28.45088 6.57416 26.06815 6.375 23.84375 L 1.375 23.84375 z M 11.28125 31.40625 C 10.30351 32.54435 9.3451 33.69909 8.375 34.84375 C 7.33073 35.63528 9.33121 35.80939 9.8125 36.1875 C 12.45569 37.29592 15.33794 36.99845 18.125 37.03125 L 18.125 32.03125 L 15.5 32.03125 C 14.06011 32.11245 12.62858 31.94315 11.28125 31.40625 z M 20.8125 32.03125 L 20.8125 37.03125 L 28.28125 37.03125 L 28.28125 32.03125 L 20.8125 32.03125 z M 30.96875 32.03125 L 30.96875 37.03125 L 35.65625 37.03125 L 35.65625 32.03125 L 30.96875 32.03125 z "
       transform="translate(307.06344,304.88808)"
       id="path5979" />
    <g
       id="g6711"
       transform="translate(-0.53435272,0.1943127)" />
    <g
       id="g6707"
       transform="translate(-1.3601889,0.1943127)" />
    <g
       id="g6795"
       transform="translate(0,-0.22807865)" />
  </g>
</svg>
