<?xml version="1.0" encoding="UTF-8" standalone="no"?>
<!-- Created with Inkscape (http://www.inkscape.org/) -->

<svg
   xmlns:dc="http://purl.org/dc/elements/1.1/"
   xmlns:cc="http://creativecommons.org/ns#"
   xmlns:rdf="http://www.w3.org/1999/02/22-rdf-syntax-ns#"
   xmlns:svg="http://www.w3.org/2000/svg"
   xmlns="http://www.w3.org/2000/svg"
   xmlns:sodipodi="http://sodipodi.sourceforge.net/DTD/sodipodi-0.dtd"
   xmlns:inkscape="http://www.inkscape.org/namespaces/inkscape"
   width="45"
   height="45"
   id="svg4387"
   version="1.1"
   inkscape:version="0.48.2 r9819"
   sodipodi:docname="conveyorFromIcon3.svg">
  <defs
     id="defs4389" />
  <sodipodi:namedview
     id="base"
     pagecolor="#ffffff"
     bordercolor="#666666"
     borderopacity="1.0"
     inkscape:pageopacity="0.0"
     inkscape:pageshadow="2"
     inkscape:zoom="7.2780295"
     inkscape:cx="2.4915187"
     inkscape:cy="4.53888"
     inkscape:document-units="px"
     inkscape:current-layer="layer1"
     showgrid="false"
     fit-margin-top="0"
     fit-margin-left="0"
     fit-margin-right="0"
     fit-margin-bottom="0"
     inkscape:window-width="1920"
     inkscape:window-height="1028"
     inkscape:window-x="-8"
     inkscape:window-y="-8"
     inkscape:window-maximized="1"
     showguides="true"
     inkscape:guide-bbox="true" />
  <metadata
     id="metadata4392">
    <rdf:RDF>
      <cc:Work
         rdf:about="">
        <dc:format>image/svg+xml</dc:format>
        <dc:type
           rdf:resource="http://purl.org/dc/dcmitype/StillImage" />
        <dc:title></dc:title>
      </cc:Work>
    </rdf:RDF>
  </metadata>
  <g
     inkscape:label="Layer 1"
     inkscape:groupmode="layer"
     id="layer1"
     transform="translate(-307.06344,-304.88808)">
    <path
       style="font-size:medium;font-style:normal;font-variant:normal;font-weight:normal;font-stretch:normal;text-indent:0;text-align:start;text-decoration:none;line-height:normal;letter-spacing:normal;word-spacing:normal;text-transform:none;direction:ltr;block-progression:tb;writing-mode:lr-tb;text-anchor:start;baseline-shift:baseline;color:#000000;fill:#000000;fill-opacity:1;stroke:none;stroke-width:1;marker:none;visibility:visible;display:inline;overflow:visible;enable-background:accumulate;font-family:Sans;-inkscape-font-specification:Sans"
       d="M 1.375 8 L 1.375 13 L 12.0625 13 L 12.0625 8 L 1.375 8 z M 14.75 8 L 14.75 13 L 24.21875 13 L 24.21875 8 L 14.75 8 z M 26.90625 8 L 26.90625 13 C 29.06604 13.075 31.248 12.80872 33.375 13.25 C 33.46376 13.3109 33.5485 13.3561 33.625 13.375 C 34.16033 13.50729 34.42055 12.70283 34.8125 12.375 C 35.64619 11.39648 36.46486 10.40402 37.3125 9.4375 C 35.60963 8.50594 33.72771 8.0971 31.8125 8 C 31.17411 7.9676 30.51221 7.9713 29.875 8 L 26.90625 8 z M 39.46875 10.96875 C 38.43732 12.26665 37.35866 13.52642 36.3125 14.8125 C 37.97879 16.46915 38.489 18.89119 38.625 21.15625 L 43.65625 21.15625 C 43.46837 17.4334 42.23596 13.58337 39.46875 10.96875 z M 28 17.0625 C 24.56039 17.31329 22.16715 21.25897 23.4375 24.4375 C 24.1447 26.60695 26.33014 27.9515 28.53125 28 C 29.53175 28.02204 30.54021 27.77726 31.40625 27.21875 C 34.31296 25.60445 34.92359 21.2557 32.625 18.875 C 31.62469 17.73573 30.15524 17.1173 28.65625 17.0625 C 28.44212 17.0545 28.21403 17.0469 28 17.0625 z M 38.65625 23.84375 C 38.45709 26.06815 37.85409 28.45088 36.0625 29.9375 C 37.12494 31.20838 38.1826 32.48329 39.25 33.75 C 42.01158 31.22584 43.41594 27.52369 43.65625 23.84375 L 38.65625 23.84375 z M 33.75 31.40625 C 32.40267 31.94315 30.97114 32.11245 29.53125 32.03125 L 26.90625 32.03125 L 26.90625 37.03125 C 27.60302 37.02305 28.29656 37.0565 29 37.0625 C 31.11032 37.08037 33.23636 37.01882 35.21875 36.1875 C 35.70004 35.80939 37.70052 35.63528 36.65625 34.84375 C 35.68615 33.69909 34.72774 32.54435 33.75 31.40625 z M 9.375 32.03125 L 9.375 37.03125 L 14.0625 37.03125 L 14.0625 32.03125 L 9.375 32.03125 z M 16.75 32.03125 L 16.75 37.03125 L 24.21875 37.03125 L 24.21875 32.03125 L 16.75 32.03125 z "
       transform="translate(307.06344,304.88808)"
       id="path5979" />
    <g
       id="g6711"
       transform="translate(-0.53435272,0.1943127)" />
    <g
       id="g6707"
       transform="translate(-1.3601889,0.1943127)" />
    <g
       id="g6795"
       transform="translate(0,-0.22807865)" />
  </g>
</svg>
