<?xml version="1.0" encoding="UTF-8" standalone="no"?>
<svg
   xmlns:dc="http://purl.org/dc/elements/1.1/"
   xmlns:cc="http://creativecommons.org/ns#"
   xmlns:rdf="http://www.w3.org/1999/02/22-rdf-syntax-ns#"
   xmlns:svg="http://www.w3.org/2000/svg"
   xmlns="http://www.w3.org/2000/svg"
   xmlns:sodipodi="http://sodipodi.sourceforge.net/DTD/sodipodi-0.dtd"
   xmlns:inkscape="http://www.inkscape.org/namespaces/inkscape"
   version="1.1"
   id="Layer_1"
   x="0px"
   y="0px"
   width="32px"
   height="32px"
   viewBox="0 0 32 32"
   enable-background="new 0 0 32 32"
   xml:space="preserve"
   inkscape:version="0.48.2 r9819"
   sodipodi:docname="cyclustime.svg"><metadata
   id="metadata8"><rdf:RDF><cc:Work
       rdf:about=""><dc:format>image/svg+xml</dc:format><dc:type
         rdf:resource="http://purl.org/dc/dcmitype/StillImage" /><dc:title></dc:title></cc:Work></rdf:RDF></metadata><defs
   id="defs6" /><sodipodi:namedview
   pagecolor="#ffffff"
   bordercolor="#666666"
   borderopacity="1"
   objecttolerance="10"
   gridtolerance="10"
   guidetolerance="10"
   inkscape:pageopacity="0"
   inkscape:pageshadow="2"
   inkscape:window-width="1920"
   inkscape:window-height="1028"
   id="namedview4"
   showgrid="false"
   inkscape:zoom="7.375"
   inkscape:cx="16"
   inkscape:cy="16"
   inkscape:window-x="-8"
   inkscape:window-y="-8"
   inkscape:window-maximized="1"
   inkscape:current-layer="Layer_1" />
<path
   id="stopwatch"
   d="m 19.8125,0 c -3.262933,0 -5.90625,2.650097 -5.90625,5.90625 0,1.934029 0.944394,3.644101 2.375,4.71875 -2.625602,0.469523 -5.057586,1.44874 -7.21875,2.84375 L 7.8125,11.75 8.625,11.15625 c 0.333921,-0.24578 0.434974,-0.723494 0.1875,-1.0625 L 8.0625,9.0625 C 7.815026,8.723494 7.337311,8.658776 7,8.90625 L 3.5,11.4375 C 3.160994,11.684974 3.0996657,12.160994 3.34375,12.5 l 0.75,1.03125 c 0.2474744,0.339006 0.725189,0.402029 1.0625,0.15625 l 0.8125,-0.59375 1.21875,1.6875 c -4.4307987,3.64262 -7.25,9.186445 -7.25,15.375 C -0.0625,41.12479 8.8388739,50 19.8125,50 30.779345,49.9983 39.654555,41.12818 39.65625,30.15625 c 0,-6.164825 -2.783812,-11.66988 -7.1875,-15.3125 L 33.6875,13.15625 34.5,13.75 c 0.335616,0.247474 0.834411,0.153201 1.09375,-0.1875 l 0.71875,-1 C 36.559974,12.226884 36.507121,11.747474 36.15625,11.5 L 32.6875,8.9375 C 32.350189,8.690026 31.879254,8.754744 31.625,9.09375 l -0.75,1.03125 c -0.247475,0.337311 -0.165067,0.815026 0.1875,1.0625 L 31.875,11.78125 30.625,13.5 C 28.455361,12.086345 25.996473,11.099609 23.34375,10.625 24.781136,9.548656 25.71536,7.838584 25.71875,5.90625 25.71875,2.648402 23.061872,0 19.8125,0 z m 0,1.53125 c 2.417113,0.0034 4.37161,1.959582 4.375,4.375 -0.0034,2.020476 -1.392247,3.6823812 -3.25,4.1875 l 0,-3 1.03125,0 c 0.416977,0 0.75,-0.333023 0.75,-0.75 l 0,-1.25 c 0,-0.418672 -0.333023,-0.78125 -0.75,-0.78125 l -4.3125,0 c -0.418672,0 -0.75,0.362578 -0.75,0.78125 l 0,1.25 c 0,0.416977 0.331328,0.78125 0.75,0.78125 l 1.03125,0 0,3 c -1.867923,-0.5068138 -3.248305,-2.196579 -3.25,-4.21875 0.0034,-2.415418 1.956192,-4.37161 4.375,-4.375 z m 0,13.3125 c 8.44125,0.01695 15.269385,6.869555 15.28125,15.3125 C 35.08188,38.5975 28.25375,45.420549 19.8125,45.4375 11.366164,45.420549 4.5414202,38.60089 4.53125,30.15625 4.5448102,21.711609 11.366164,14.85731 19.8125,14.84375 z m 0,1.53125 c -0.806835,0 -1.46875,0.663611 -1.46875,1.46875 0,0.805139 0.66022,1.46875 1.46875,1.46875 0.806834,0 1.46875,-0.663611 1.46875,-1.46875 0,-0.805139 -0.665306,-1.46875 -1.46875,-1.46875 z m -6.34375,1.65625 c -0.188387,0.02341 -0.356662,0.08665 -0.53125,0.1875 -0.698352,0.403417 -0.938058,1.301648 -0.53125,2 L 17.25,31.625 c 0.813615,1.406875 2.620985,1.872724 4.03125,1.0625 1.40518,-0.81192 1.872724,-2.620986 1.0625,-4.03125 L 14.9375,18.75 c -0.301291,-0.523764 -0.90359,-0.788988 -1.46875,-0.71875 z m 12.375,0 c -0.467292,0.03291 -0.901996,0.28228 -1.15625,0.71875 -0.401723,0.698353 -0.167102,1.596582 0.53125,2 0.693267,0.403417 1.599972,0.167103 2,-0.53125 0.401722,-0.696657 0.170493,-1.594888 -0.53125,-2 -0.263153,-0.151282 -0.563375,-0.207244 -0.84375,-0.1875 z m -16.78125,4.5 c -0.4673085,0.03234 -0.903055,0.283339 -1.15625,0.71875 -0.405113,0.701743 -0.167102,1.598278 0.53125,2 0.698352,0.403417 1.596582,0.167103 2,-0.53125 0.401722,-0.700047 0.165407,-1.596583 -0.53125,-2 C 9.644368,22.566833 9.3428851,22.511843 9.0625,22.53125 z m 21.21875,0 c -0.188281,0.02333 -0.387064,0.08707 -0.5625,0.1875 -0.694962,0.403417 -0.936362,1.301648 -0.53125,2 0.401722,0.700048 1.306733,0.938057 2,0.53125 0.698353,-0.400027 0.939752,-1.298257 0.53125,-2 -0.303835,-0.523764 -0.872658,-0.788749 -1.4375,-0.71875 z M 7.5,28.6875 c -0.810225,0 -1.4375,0.665306 -1.4375,1.46875 0.0017,0.80514 0.63236,1.43411 1.4375,1.4375 0.808529,0.0017 1.467055,-0.62897 1.46875,-1.4375 C 8.96535,29.347721 8.301749,28.6875 7.5,28.6875 z m 24.59375,0 c -0.798359,0 -1.4375,0.665306 -1.4375,1.46875 0,0.80853 0.639141,1.44089 1.4375,1.4375 0.81192,0.0034 1.46875,-0.652701 1.46875,-1.4375 0,-0.808529 -0.672085,-1.46536 -1.46875,-1.46875 z m -23.125,6.15625 c -0.1880159,0.02315 -0.3570857,0.08749 -0.53125,0.1875 -0.698352,0.403418 -0.936363,1.305037 -0.53125,2 0.405112,0.698352 1.270398,0.936363 1.96875,0.53125 0.700048,-0.403417 0.967612,-1.298258 0.5625,-2 -0.302563,-0.521222 -0.9047023,-0.788193 -1.46875,-0.71875 z m 21.40625,0 c -0.46716,0.03324 -0.935364,0.282279 -1.1875,0.71875 -0.403417,0.698352 -0.170492,1.596583 0.53125,2 0.694963,0.403418 1.594887,0.167102 2,-0.53125 0.405112,-0.698353 0.163713,-1.593192 -0.53125,-2 -0.261882,-0.15001 -0.532204,-0.207443 -0.8125,-0.1875 z m -16.8125,4.5 c -0.467077,0.0292 -0.904114,0.278042 -1.15625,0.71875 -0.403417,0.701742 -0.165407,1.584717 0.53125,2 0.700048,0.389856 1.593192,0.173883 2,-0.53125 0.401722,-0.706827 0.165408,-1.588107 -0.53125,-2 -0.262518,-0.148739 -0.563504,-0.20502 -0.84375,-0.1875 z m 12.21875,0 c -0.187725,0.02352 -0.389183,0.08665 -0.5625,0.1875 -0.698352,0.400027 -0.938058,1.301648 -0.53125,2 0.401722,0.698352 1.301648,0.936362 2,0.53125 0.698353,-0.405113 0.934667,-1.322728 0.53125,-2.03125 -0.303835,-0.503424 -0.874326,-0.758056 -1.4375,-0.6875 z m -5.96875,1.625 c -0.80853,0 -1.46875,0.665306 -1.46875,1.46875 0,0.80853 0.66361,1.46875 1.46875,1.46875 0.805139,0 1.46875,-0.661915 1.46875,-1.46875 0,-0.805139 -0.661916,-1.46875 -1.46875,-1.46875 z" />
</svg>