<?xml version="1.0" encoding="UTF-8" standalone="no"?>
<svg
   xmlns:dc="http://purl.org/dc/elements/1.1/"
   xmlns:cc="http://creativecommons.org/ns#"
   xmlns:rdf="http://www.w3.org/1999/02/22-rdf-syntax-ns#"
   xmlns:svg="http://www.w3.org/2000/svg"
   xmlns="http://www.w3.org/2000/svg"
   xmlns:sodipodi="http://sodipodi.sourceforge.net/DTD/sodipodi-0.dtd"
   xmlns:inkscape="http://www.inkscape.org/namespaces/inkscape"
   version="1.1"
   id="Layer_1"
   x="0px"
   y="0px"
   width="32px"
   height="32px"
   viewBox="0 0 32 32"
   enable-background="new 0 0 32 32"
   xml:space="preserve"
   inkscape:version="0.48.2 r9819"
   sodipodi:docname="cyclustime.svg"><metadata
   id="metadata8"><rdf:RDF><cc:Work
       rdf:about=""><dc:format>image/svg+xml</dc:format><dc:type
         rdf:resource="http://purl.org/dc/dcmitype/StillImage" /><dc:title /></cc:Work></rdf:RDF></metadata><defs
   id="defs6" /><sodipodi:namedview
   pagecolor="#ffffff"
   bordercolor="#666666"
   borderopacity="1"
   objecttolerance="10"
   gridtolerance="10"
   guidetolerance="10"
   inkscape:pageopacity="0"
   inkscape:pageshadow="2"
   inkscape:window-width="1920"
   inkscape:window-height="1028"
   id="namedview4"
   showgrid="false"
   inkscape:zoom="7.375"
   inkscape:cx="-5.1525424"
   inkscape:cy="16"
   inkscape:window-x="-8"
   inkscape:window-y="-8"
   inkscape:window-maximized="1"
   inkscape:current-layer="Layer_1" />
<path
   d="M 19.15625 0.0625 C 16.413031 0.0625 14.1875 2.293732 14.1875 5.03125 C 14.1875 6.657231 15.016008 8.0965197 16.21875 9 C 14.011349 9.3947391 11.973187 10.233434 10.15625 11.40625 L 9.09375 9.96875 L 9.75 9.46875 C 10.030734 9.2621181 10.145556 8.8475111 9.9375 8.5625 L 9.3125 7.6875 C 9.104442 7.4024908 8.658585 7.3544428 8.375 7.5625 L 5.46875 9.71875 C 5.183741 9.9268075 5.107293 10.30874 5.3125 10.59375 L 5.96875 11.4375 C 6.176807 11.72251 6.560164 11.800382 6.84375 11.59375 L 7.53125 11.09375 L 8.5625 12.5 C 4.83743 15.562429 2.46875 20.234646 2.46875 25.4375 C 2.46875 34.658991 9.9304816 42.09375 19.15625 42.09375 C 28.376314 42.09235 35.842324 34.661841 35.84375 25.4375 C 35.84375 20.254598 33.514777 15.62493 29.8125 12.5625 L 30.84375 11.125 L 31.5 11.625 C 31.782159 11.833057 32.219469 11.755185 32.4375 11.46875 L 33.03125 10.625 C 33.239306 10.34284 33.201235 9.9580575 32.90625 9.75 L 30 7.59375 C 29.716415 7.3856928 29.307507 7.4337408 29.09375 7.71875 L 28.5 8.59375 C 28.291942 8.8773346 28.328589 9.2606925 28.625 9.46875 L 29.34375 10 L 28.25 11.4375 C 26.425938 10.24901 24.355203 9.3990141 22.125 9 C 23.333442 8.0950941 24.12215 6.655806 24.125 5.03125 C 24.125 2.292306 21.888067 0.0625 19.15625 0.0625 z M 19.15625 1.375 C 21.188368 1.3779 22.8409 3.000556 22.84375 5.03125 C 22.84085 6.729908 21.686853 8.1378359 20.125 8.5625 L 20.125 6.0625 L 20.96875 6.0625 C 21.319311 6.0625 21.625 5.756811 21.625 5.40625 L 21.625 4.375 C 21.625 4.023013 21.319311 3.71875 20.96875 3.71875 L 17.34375 3.71875 C 16.991763 3.71875 16.71875 4.023013 16.71875 4.375 L 16.71875 5.40625 C 16.71875 5.756811 16.991763 6.09375 17.34375 6.09375 L 18.21875 6.09375 L 18.21875 8.59375 C 16.648346 8.1676603 15.501425 6.731333 15.5 5.03125 C 15.5029 3.000556 17.122704 1.37785 19.15625 1.375 z M 19.15625 12.5625 C 26.252992 12.57675 31.990025 18.339332 32 25.4375 C 31.99 32.534243 26.252992 38.266999 19.15625 38.28125 C 12.05523 38.26699 6.32105 32.537093 6.3125 25.4375 C 6.32389 18.337905 12.05523 12.5739 19.15625 12.5625 z M 19.15625 13.84375 C 18.477925 13.84375 17.9375 14.385603 17.9375 15.0625 C 17.9375 15.739398 18.476501 16.3125 19.15625 16.3125 C 19.834573 16.3125 20.40625 15.739398 20.40625 15.0625 C 20.40625 14.385603 19.831723 13.84375 19.15625 13.84375 z M 13.875 15.25 C 13.716619 15.26968 13.52178 15.290205 13.375 15.375 C 12.78788 15.714162 12.595487 16.475381 12.9375 17.0625 L 17.03125 26.65625 C 17.715273 27.83904 19.220611 28.243672 20.40625 27.5625 C 21.587615 26.879902 21.962423 25.34189 21.28125 24.15625 L 15.0625 15.8125 C 14.809198 15.37216 14.350141 15.19095 13.875 15.25 z M 24.25 15.25 C 23.857137 15.27767 23.495007 15.445551 23.28125 15.8125 C 22.943513 16.399622 23.131629 17.192088 23.71875 17.53125 C 24.301594 17.870411 25.069937 17.649621 25.40625 17.0625 C 25.743987 16.476806 25.52747 15.715587 24.9375 15.375 C 24.716262 15.247814 24.485717 15.233401 24.25 15.25 z M 10.15625 19.03125 C 9.7633726 19.05844 9.369116 19.22769 9.15625 19.59375 C 8.815662 20.183719 9.037879 20.974764 9.625 21.3125 C 10.212118 21.651661 10.942087 21.430871 11.28125 20.84375 C 11.618986 20.255204 11.429445 19.526661 10.84375 19.1875 C 10.62358 19.059781 10.391975 19.014933 10.15625 19.03125 z M 27.96875 19.03125 C 27.810458 19.05087 27.647492 19.10306 27.5 19.1875 C 26.915731 19.526661 26.721913 20.256629 27.0625 20.84375 C 27.400236 21.432296 28.167155 21.654512 28.75 21.3125 C 29.33712 20.976188 29.499686 20.183719 29.15625 19.59375 C 28.900809 19.153409 28.443625 18.972399 27.96875 19.03125 z M 8.8125 24.1875 C 8.131325 24.1875 7.59375 24.762027 7.59375 25.4375 C 7.59515 26.114399 8.135601 26.622149 8.8125 26.625 C 9.492247 26.6264 10.061074 26.117249 10.0625 25.4375 C 10.0596 24.757752 9.486548 24.1875 8.8125 24.1875 z M 29.5 24.1875 C 28.828802 24.1875 28.28125 24.762027 28.28125 25.4375 C 28.28125 26.117249 28.828802 26.627849 29.5 26.625 C 30.1826 26.6279 30.71875 26.097298 30.71875 25.4375 C 30.71875 24.757752 30.169775 24.190349 29.5 24.1875 z M 10.0625 29.375 C 9.9044296 29.39447 9.771423 29.415915 9.625 29.5 C 9.037879 29.839162 8.784413 30.60323 9.125 31.1875 C 9.465586 31.774621 10.225379 31.996837 10.8125 31.65625 C 11.401045 31.317089 11.621836 30.589969 11.28125 30 C 11.026878 29.561798 10.536707 29.316618 10.0625 29.375 z M 28.0625 29.375 C 27.669748 29.40295 27.274476 29.633049 27.0625 30 C 26.723338 30.587121 26.91003 31.317089 27.5 31.65625 C 28.084269 31.995413 28.815662 31.774621 29.15625 31.1875 C 29.496836 30.600379 29.334271 29.842012 28.75 29.5 C 28.529829 29.373883 28.298151 29.358234 28.0625 29.375 z M 13.90625 33.15625 C 13.513568 33.1808 13.149476 33.379487 12.9375 33.75 C 12.598338 34.339969 12.789306 35.088363 13.375 35.4375 C 13.963546 35.765261 14.720487 35.592821 15.0625 35 C 15.400236 34.405755 15.241946 33.658787 14.65625 33.3125 C 14.435545 33.187452 14.141858 33.14152 13.90625 33.15625 z M 24.1875 33.15625 C 24.029675 33.17602 23.864461 33.227705 23.71875 33.3125 C 23.131629 33.648812 22.939236 34.41288 23.28125 35 C 23.618986 35.58712 24.350379 35.778087 24.9375 35.4375 C 25.52462 35.096914 25.74541 34.314421 25.40625 33.71875 C 25.150809 33.295512 24.660973 33.096931 24.1875 33.15625 z M 19.15625 34.5 C 18.476501 34.5 17.9375 35.074527 17.9375 35.75 C 17.9375 36.42975 18.479351 37 19.15625 37 C 19.833148 37 20.40625 36.428325 20.40625 35.75 C 20.40625 35.073103 19.834574 34.5 19.15625 34.5 z "
   id="stopwatch" />
</svg>