<?xml version="1.0" encoding="UTF-8" standalone="no"?>
<!-- Created with Inkscape (http://www.inkscape.org/) -->

<svg
   xmlns:dc="http://purl.org/dc/elements/1.1/"
   xmlns:cc="http://creativecommons.org/ns#"
   xmlns:rdf="http://www.w3.org/1999/02/22-rdf-syntax-ns#"
   xmlns:svg="http://www.w3.org/2000/svg"
   xmlns="http://www.w3.org/2000/svg"
   xmlns:sodipodi="http://sodipodi.sourceforge.net/DTD/sodipodi-0.dtd"
   xmlns:inkscape="http://www.inkscape.org/namespaces/inkscape"
   width="744.09448819"
   height="1052.3622047"
   id="svg3410"
   version="1.1"
   inkscape:version="0.48.2 r9819"
   sodipodi:docname="gearMachine.svg">
  <defs
     id="defs3412" />
  <sodipodi:namedview
     id="base"
     pagecolor="#ffffff"
     bordercolor="#666666"
     borderopacity="1.0"
     inkscape:pageopacity="0.0"
     inkscape:pageshadow="2"
     inkscape:zoom="2.8"
     inkscape:cx="-19.935424"
     inkscape:cy="891.42857"
     inkscape:document-units="px"
     inkscape:current-layer="layer1"
     showgrid="false"
     inkscape:window-width="1920"
     inkscape:window-height="1028"
     inkscape:window-x="-8"
     inkscape:window-y="-8"
     inkscape:window-maximized="1" />
  <metadata
     id="metadata3415">
    <rdf:RDF>
      <cc:Work
         rdf:about="">
        <dc:format>image/svg+xml</dc:format>
        <dc:type
           rdf:resource="http://purl.org/dc/dcmitype/StillImage" />
        <dc:title></dc:title>
      </cc:Work>
    </rdf:RDF>
  </metadata>
  <g
     inkscape:label="Layer 1"
     inkscape:groupmode="layer"
     id="layer1">
    <g
       transform="matrix(0.26822435,0,0,0.26822435,-101.80645,0.53289395)"
       id="g3101">
      <path
         style="fill:none"
         inkscape:connector-curvature="0"
         d="m 489.683,67.696 c -3.093,-4.802 -7.617,-8.756 -12.796,-11.088 -5.117,-2.315 -11.037,-3.304 -16.733,-2.373 -5.645,0.738 -10.978,3.241 -15.323,6.99 -4.362,3.754 -7.548,8.776 -9.16,14.196 -1.604,5.419 -1.603,11.508 0,16.926 1.613,5.421 4.799,10.443 9.161,14.197 4.347,3.75 9.68,6.252 15.324,6.991 5.695,0.931 11.614,-0.058 16.73,-2.374 5.179,-2.332 9.703,-6.287 12.797,-11.09 3.14,-4.818 4.666,-10.395 4.786,-16.188 -0.12,-5.793 -1.645,-11.367 -4.786,-16.187 z"
         id="path3103" />
      <path
         style="fill:none"
         inkscape:connector-curvature="0"
         d="m 498.893,61.766 c -4.22,-6.555 -10.36,-11.914 -17.45,-15.119 -7.036,-3.195 -15.1,-4.482 -22.836,-3.256 -7.72,1.028 -15.05,4.449 -20.954,9.559 -5.929,5.108 -10.291,11.946 -12.495,19.391 -2.193,7.453 -2.193,15.637 10e-4,23.09 2.204,7.445 6.566,14.283 12.496,19.391 5.904,5.11 13.234,8.531 20.954,9.561 7.735,1.227 15.798,-0.061 22.834,-3.257 7.089,-3.205 13.229,-8.565 17.45,-15.12 4.274,-6.564 6.42,-14.272 6.531,-22.119 -0.111,-7.85 -2.256,-15.559 -6.531,-22.121 z m -2.84,42.409 c -3.873,6.015 -9.516,10.941 -16.016,13.878 -6.444,2.924 -13.846,4.119 -20.952,2.984 -7.079,-0.939 -13.794,-4.078 -19.218,-8.768 -5.446,-4.691 -9.445,-10.97 -11.468,-17.79 -2.012,-6.825 -2.012,-14.363 0,-21.188 2.021,-6.821 6.021,-13.1 11.466,-17.789 5.424,-4.69 12.139,-7.828 19.219,-8.768 7.107,-1.135 14.509,0.06 20.954,2.983 6.5,2.937 12.142,7.862 16.015,13.876 3.925,6.025 5.879,13.076 5.993,20.291 -0.114,7.214 -2.068,14.264 -5.993,20.291 z"
         id="path3105" />
      <path
         style="fill:#282a1f"
         d="M 23.4375 0.53125 C 22.938603 1.6449175 22.482811 2.797146 22.125 3.96875 C 21.429494 4.0025463 20.750764 4.0285752 20.0625 4.15625 C 19.369945 4.2490556 18.672975 4.3683056 18 4.5625 C 17.33239 3.5604138 16.607249 2.5509105 15.8125 1.625 C 14.196448 2.176201 12.603589 2.8474251 11.15625 3.75 C 11.351786 4.9798086 11.603561 6.164904 11.9375 7.34375 C 11.386299 7.769422 10.787121 8.1448784 10.28125 8.625 C 9.765991 9.0941244 9.2348174 9.5311476 8.78125 10.0625 C 7.6761657 9.578355 6.4975152 9.147108 5.3125 8.78125 C 4.2599877 10.11808 3.2982394 11.550924 2.5625 13.09375 C 3.3880945 14.023684 4.2552844 14.881486 5.15625 15.6875 C 4.920749 16.344113 4.6527519 16.983007 4.46875 17.65625 C 4.3080836 18.335126 4.0826131 18.993335 4 19.6875 C 2.8098886 19.880085 1.6095044 20.16472 0.40625 20.5 C 0.22144342 22.192227 0.2211752 23.870273 0.40625 25.5625 C 1.6097727 25.897512 2.8098886 26.182415 4 26.375 C 4.0826131 27.068896 4.3080836 27.727374 4.46875 28.40625 C 4.6532884 29.079493 4.920749 29.718119 5.15625 30.375 C 4.2552844 31.181282 3.3880945 32.038816 2.5625 32.96875 C 3.2982394 34.511308 4.2599877 35.94442 5.3125 37.28125 C 6.4975152 36.915392 7.6758975 36.484413 8.78125 36 C 9.2342809 36.531084 9.765991 36.968644 10.28125 37.4375 C 10.787121 37.91789 11.386567 38.293078 11.9375 38.71875 C 11.603561 39.897864 11.352054 41.082691 11.15625 42.3125 C 12.603857 43.215075 14.19618 43.886299 15.8125 44.4375 C 16.607249 43.511321 17.33239 42.502086 18 41.5 C 18.672975 41.694194 19.370213 41.813981 20.0625 41.90625 C 20.751032 42.034193 21.429494 42.060222 22.125 42.09375 C 22.48308 43.265622 22.938334 44.417851 23.4375 45.53125 C 25.1308 45.474118 26.821584 45.271164 28.46875 44.8125 C 28.630758 43.577863 28.739539 42.393032 28.75 41.15625 C 29.40098 40.904924 30.06817 40.700088 30.6875 40.375 C 31.318364 40.074589 31.945716 39.787397 32.53125 39.40625 C 33.456088 40.180345 34.468409 40.947465 35.5 41.625 C 36.88672 40.637934 38.209161 39.520042 39.34375 38.25 C 38.811056 37.125604 38.239634 36.064987 37.59375 35.03125 C 38.003329 34.468247 38.456566 33.944036 38.8125 33.34375 C 39.171116 32.74561 39.560505 32.171502 39.84375 31.53125 C 41.042445 31.684674 42.28052 31.761133 43.53125 31.78125 C 44.164796 30.195508 44.664179 28.56079 44.9375 26.875 C 43.881769 26.217314 42.832553 25.641332 41.75 25.125 C 41.815715 24.431908 41.81049 23.725951 41.84375 23.03125 C 41.81049 22.336549 41.815447 21.630323 41.75 20.9375 C 42.832553 20.4209 43.881769 19.845186 44.9375 19.1875 C 44.664179 17.50171 44.165064 15.866992 43.53125 14.28125 C 42.28052 14.301099 41.042445 14.377289 39.84375 14.53125 C 39.560505 13.890998 39.171116 13.31689 38.8125 12.71875 C 38.456298 12.118464 38.003865 11.594253 37.59375 11.03125 C 38.239634 9.9975134 38.811056 8.9368965 39.34375 7.8125 C 38.208893 6.5424577 36.88672 5.4555474 35.5 4.46875 C 34.468141 5.1465529 33.455819 5.8818863 32.53125 6.65625 C 31.945448 6.274835 31.317827 5.9879113 30.6875 5.6875 C 30.067902 5.3624121 29.401249 5.157308 28.75 4.90625 C 28.739539 3.6694675 28.630758 2.4846367 28.46875 1.25 C 26.821316 0.79079991 25.131069 0.58838179 23.4375 0.53125 z M 22.78125 12.0625 C 24.35343 12.060991 25.92833 12.388517 27.34375 13.03125 C 29.245461 13.890909 30.868093 15.335539 32 17.09375 C 33.146659 18.853838 33.720227 20.926225 33.75 23.03125 C 33.720227 25.136006 33.146391 27.208125 32 28.96875 C 30.867825 30.727497 29.245192 32.171591 27.34375 33.03125 C 25.456523 33.888495 23.293465 34.235093 21.21875 33.90625 C 19.148058 33.630247 17.177347 32.714645 15.59375 31.34375 C 14.00318 29.973928 12.809916 28.122199 12.21875 26.125 C 11.630266 24.125924 11.630534 21.936576 12.21875 19.9375 C 12.809916 17.940838 14.003448 16.120358 15.59375 14.75 C 17.177347 13.379642 19.116808 12.432253 21.1875 12.15625 C 21.706246 12.073972 22.25719 12.063003 22.78125 12.0625 z M 22.0625 12.96875 C 21.822399 12.987596 21.582034 13.024446 21.34375 13.0625 C 19.444722 13.314363 17.642349 14.14801 16.1875 15.40625 C 14.727018 16.663954 13.6361 18.357942 13.09375 20.1875 C 12.554083 22.018131 12.554083 24.044369 13.09375 25.875 C 13.6361 27.70429 14.726482 29.39801 16.1875 30.65625 C 17.642349 31.913954 19.44499 32.747869 21.34375 33 C 23.249752 33.304435 25.209062 32.97152 26.9375 32.1875 C 28.680958 31.399725 30.211167 30.082119 31.25 28.46875 C 32.302781 26.85243 32.813172 24.965952 32.84375 23.03125 C 32.813172 21.095743 32.302781 19.209802 31.25 17.59375 C 30.211167 15.980649 28.680958 14.662775 26.9375 13.875 C 25.424882 13.188748 23.743204 12.836825 22.0625 12.96875 z M 22.78125 15 C 23.936723 14.998366 25.064372 15.253045 26.09375 15.71875 C 27.482884 16.344249 28.701632 17.399487 29.53125 18.6875 C 30.373743 19.980073 30.780313 21.477158 30.8125 23.03125 C 30.780313 24.585074 30.373474 26.082427 29.53125 27.375 C 28.701364 28.663013 27.482884 29.718251 26.09375 30.34375 C 24.721514 30.964958 23.152538 31.249717 21.625 31 C 20.110874 30.801782 18.665703 30.130841 17.5 29.125 C 16.330005 28.118086 15.495146 26.766544 15.0625 25.3125 C 14.632536 23.85926 14.632268 22.203508 15.0625 20.75 C 15.494878 19.296224 16.330005 17.975664 17.5 16.96875 C 18.665703 15.963177 20.111142 15.2917 21.625 15.09375 C 22.006951 15.031321 22.396092 15.000545 22.78125 15 z "
         transform="matrix(3.7282223,0,0,3.7282223,379.55708,-1.9867471)"
         id="path3107" />
    </g>
  </g>
</svg>
