<?xml version="1.0" encoding="UTF-8" standalone="no"?>
<svg
   xmlns:dc="http://purl.org/dc/elements/1.1/"
   xmlns:cc="http://creativecommons.org/ns#"
   xmlns:rdf="http://www.w3.org/1999/02/22-rdf-syntax-ns#"
   xmlns:svg="http://www.w3.org/2000/svg"
   xmlns="http://www.w3.org/2000/svg"
   xmlns:sodipodi="http://sodipodi.sourceforge.net/DTD/sodipodi-0.dtd"
   xmlns:inkscape="http://www.inkscape.org/namespaces/inkscape"
   version="1.1"
   id="Layer_1"
   x="0px"
   y="0px"
   width="32px"
   height="32px"
   viewBox="0 0 32 32"
   enable-background="new 0 0 32 32"
   xml:space="preserve"
   inkscape:version="0.48.2 r9819"
   sodipodi:docname="timeTillPause.svg"><metadata
   id="metadata8"><rdf:RDF><cc:Work
       rdf:about=""><dc:format>image/svg+xml</dc:format><dc:type
         rdf:resource="http://purl.org/dc/dcmitype/StillImage" /><dc:title /></cc:Work></rdf:RDF></metadata><defs
   id="defs6" /><sodipodi:namedview
   pagecolor="#ffffff"
   bordercolor="#666666"
   borderopacity="1"
   objecttolerance="10"
   gridtolerance="10"
   guidetolerance="10"
   inkscape:pageopacity="0"
   inkscape:pageshadow="2"
   inkscape:window-width="1920"
   inkscape:window-height="1028"
   id="namedview4"
   showgrid="false"
   inkscape:zoom="7.375"
   inkscape:cx="-5.1525424"
   inkscape:cy="16"
   inkscape:window-x="-8"
   inkscape:window-y="-8"
   inkscape:window-maximized="1"
   inkscape:current-layer="Layer_1" />
<path
   d="M 20.125 -0.0625 C 9.7751861 0.098696 1.0347317 8.1097258 0.125 18.65625 C -0.83920946 29.904331 7.505003 39.81087 18.75 40.78125 C 30.001167 41.74546 39.90462 33.371538 40.875 22.125 C 40.989162 20.787448 40.94826 19.502306 40.8125 18.21875 L 35.75 16.375 C 36.198936 18.079723 36.405816 19.861297 36.25 21.71875 C 35.490974 30.418233 27.827569 36.890592 19.125 36.15625 C 10.425516 35.392596 3.9844081 27.732276 4.71875 19.03125 C 5.4808611 10.328681 13.111474 3.889115 21.8125 4.625 C 25.558261 4.953602 28.86497 6.5809911 31.375 9 L 28.875 11.125 L 39.71875 15.03125 L 37.6875 3.6875 L 34.9375 6.03125 C 31.646846 2.712826 27.243438 0.431966 22.21875 0 C 21.516516 -0.06036 20.814988 -0.07325 20.125 -0.0625 z M 20.46875 6.6875 C 19.61716 6.6875 18.9375 7.3671607 18.9375 8.21875 L 18.21875 19.5625 L 13.5625 22.59375 C 12.825072 23.021088 12.572662 23.9547 13 24.6875 C 13.424252 25.42647 14.390658 25.677338 15.125 25.25 L 20.21875 22.65625 C 20.30206 22.66859 20.380814 22.6875 20.46875 22.6875 C 21.747677 22.689 22.78125 21.65547 22.78125 20.375 L 22 8.21875 C 22 7.3671607 21.32034 6.6875 20.46875 6.6875 z M 14.21875 8.34375 C 14.019882 8.368386 13.809357 8.4248012 13.625 8.53125 C 12.887573 8.9570449 12.636705 9.918823 13.0625 10.65625 C 13.49138 11.395221 14.418823 11.61638 15.15625 11.1875 C 15.895221 10.761705 16.175795 9.8311774 15.75 9.09375 C 15.430654 8.5406795 14.815355 8.2698432 14.21875 8.34375 z M 26.3125 8.34375 C 25.880012 8.4210001 25.479096 8.6798149 25.25 9.09375 C 24.831919 9.8342629 25.068506 10.761705 25.78125 11.1875 C 26.52022 11.613295 27.478912 11.393678 27.90625 10.65625 C 28.333588 9.9203657 28.053013 8.9570449 27.3125 8.53125 C 27.128529 8.4248013 26.948506 8.3682649 26.75 8.34375 C 26.60112 8.3253638 26.456663 8.318 26.3125 8.34375 z M 9.71875 12.78125 C 9.2757746 12.858178 8.8645096 13.116447 8.625 13.53125 C 8.1992051 14.268677 8.453158 15.230455 9.1875 15.65625 C 9.9280128 16.083588 10.824205 15.834263 11.25 15.09375 C 11.674252 14.356323 11.454635 13.396088 10.71875 12.96875 C 10.534007 12.862301 10.355191 12.805886 10.15625 12.78125 C 10.007045 12.762773 9.8664085 12.755607 9.71875 12.78125 z M 30.78125 12.78125 C 30.582936 12.80589 30.399635 12.862298 30.21875 12.96875 C 29.479779 13.39763 29.260163 14.357865 29.6875 15.09375 C 30.114838 15.829635 31.012572 16.085131 31.75 15.65625 C 32.487427 15.231997 32.772631 14.268677 32.34375 13.53125 C 32.026718 12.978179 31.376192 12.707344 30.78125 12.78125 z M 8.3125 18.84375 C 7.4578248 18.84375 6.78125 19.524952 6.78125 20.375 C 6.78125 21.228132 7.462453 21.9375 8.3125 21.9375 C 9.1640898 21.9375 9.8734572 21.226589 9.875 20.375 C 9.87346 19.52341 9.1656326 18.845293 8.3125 18.84375 z M 32.625 18.84375 C 31.770325 18.84685 31.09375 19.526495 31.09375 20.375 C 31.09525 21.226589 31.771868 21.9375 32.625 21.9375 C 33.47659 21.939 34.15625 21.228132 34.15625 20.375 C 34.15625 19.524952 33.47659 18.84375 32.625 18.84375 z M 9.78125 24.90625 C 9.5821649 24.93329 9.3722425 25.045559 9.1875 25.15625 C 8.4500726 25.574332 8.1976624 26.502921 8.625 27.21875 C 9.0477094 27.957719 9.984408 28.236752 10.71875 27.8125 C 11.45772 27.394419 11.738294 26.42647 11.3125 25.6875 C 10.993153 25.135586 10.378506 24.825111 9.78125 24.90625 z M 30.71875 24.96875 C 30.288598 25.037014 29.925274 25.287449 29.6875 25.6875 C 29.264791 26.421841 29.479779 27.386705 30.21875 27.8125 C 30.954634 28.235209 31.919498 27.954634 32.34375 27.21875 C 32.761832 26.47978 32.472 25.560447 31.75 25.15625 C 31.564871 25.05173 31.386899 24.992711 31.1875 24.96875 C 31.037951 24.95078 30.862134 24.945995 30.71875 24.96875 z M 14.3125 29.34375 C 14.21497 29.347044 14.095264 29.38065 14 29.40625 C 13.618944 29.508641 13.27694 29.756286 13.0625 30.125 C 12.638247 30.86397 12.889116 31.825748 13.625 32.25 C 14.362428 32.668082 15.32729 32.379793 15.75 31.65625 C 16.177337 30.91728 15.893678 30.021088 15.15625 29.59375 C 14.879715 29.434655 14.605089 29.333869 14.3125 29.34375 z M 26.34375 29.40625 C 26.145147 29.43067 25.965607 29.487689 25.78125 29.59375 C 25.04228 30.021088 24.755535 30.918822 25.1875 31.65625 C 25.61021 32.392134 26.575073 32.678881 27.3125 32.25 C 28.049928 31.825748 28.333588 30.848542 27.90625 30.125 C 27.585747 29.571929 26.939559 29.332994 26.34375 29.40625 z M 20.46875 31 C 19.61716 31 18.9375 31.678118 18.9375 32.53125 C 18.9375 33.384383 19.61716 34.0625 20.46875 34.0625 C 21.32034 34.0625 22 33.384383 22 32.53125 C 22 31.678118 21.32034 31 20.46875 31 z M 37.625 36.0625 L 37.625 49.9375 L 41.09375 49.9375 L 41.09375 36.0625 L 37.625 36.0625 z M 44.5625 36.0625 L 44.5625 49.9375 L 48.0625 49.9375 L 48.0625 36.0625 L 44.5625 36.0625 z "
   id="timeforward" />
</svg>