<?xml version="1.0" encoding="UTF-8" standalone="no"?>
<svg
   xmlns:dc="http://purl.org/dc/elements/1.1/"
   xmlns:cc="http://creativecommons.org/ns#"
   xmlns:rdf="http://www.w3.org/1999/02/22-rdf-syntax-ns#"
   xmlns:svg="http://www.w3.org/2000/svg"
   xmlns="http://www.w3.org/2000/svg"
   xmlns:sodipodi="http://sodipodi.sourceforge.net/DTD/sodipodi-0.dtd"
   xmlns:inkscape="http://www.inkscape.org/namespaces/inkscape"
   version="1.1"
   id="Layer_1"
   x="0px"
   y="0px"
   width="32px"
   height="32px"
   viewBox="0 0 32 32"
   enable-background="new 0 0 32 32"
   xml:space="preserve"
   inkscape:version="0.48.2 r9819"
   sodipodi:docname="timeTillFinished.svg"><metadata
   id="metadata8"><rdf:RDF><cc:Work
       rdf:about=""><dc:format>image/svg+xml</dc:format><dc:type
         rdf:resource="http://purl.org/dc/dcmitype/StillImage" /><dc:title /></cc:Work></rdf:RDF></metadata><defs
   id="defs6" /><sodipodi:namedview
   pagecolor="#ffffff"
   bordercolor="#666666"
   borderopacity="1"
   objecttolerance="10"
   gridtolerance="10"
   guidetolerance="10"
   inkscape:pageopacity="0"
   inkscape:pageshadow="2"
   inkscape:window-width="1920"
   inkscape:window-height="1028"
   id="namedview4"
   showgrid="false"
   inkscape:zoom="7.375"
   inkscape:cx="-5.1525424"
   inkscape:cy="16"
   inkscape:window-x="-8"
   inkscape:window-y="-8"
   inkscape:window-maximized="1"
   inkscape:current-layer="Layer_1" />
<g
   transform="matrix(0.28129826,0,0,0.28129826,16.211394,23.924491)"
   id="Your_Icon"><path
     style="fill-rule:evenodd"
     d="M 19 8.03125 C 10.337463 8.1661674 3.0426729 14.860322 2.28125 23.6875 C 1.4742306 33.101866 8.4319667 41.406565 17.84375 42.21875 C 27.260697 43.025769 35.531565 36.006824 36.34375 26.59375 C 36.439295 25.474253 36.426133 24.418053 36.3125 23.34375 L 32.0625 21.78125 C 32.438248 23.208061 32.630415 24.695358 32.5 26.25 C 31.864715 33.531251 25.408834 38.989626 18.125 38.375 C 10.843748 37.73584 5.4791239 31.282543 6.09375 24 C 6.7316182 16.716166 13.092457 11.352833 20.375 11.96875 C 23.51011 12.243782 26.305418 13.60035 28.40625 15.625 L 26.3125 17.40625 L 35.375 20.65625 L 33.6875 11.21875 L 31.375 13.125 C 28.620804 10.347562 24.92429 8.4552948 20.71875 8.09375 C 20.130998 8.0432305 19.577503 8.0222558 19 8.03125 z M 19.28125 13.6875 C 18.56849 13.6875 17.96875 14.255991 17.96875 14.96875 L 17.375 24.46875 L 13.53125 27.03125 C 12.914042 27.388922 12.673579 28.136666 13.03125 28.75 C 13.386339 29.3685 14.166624 29.576422 14.78125 29.21875 L 19.0625 27.03125 C 19.13222 27.041554 19.20765 27.09375 19.28125 27.09375 C 20.35168 27.095057 21.21875 26.227972 21.21875 25.15625 L 20.5625 14.96875 C 20.5625 14.255991 19.99401 13.6875 19.28125 13.6875 z M 14.03125 15.0625 C 13.864802 15.083119 13.716803 15.129655 13.5625 15.21875 C 12.945292 15.57513 12.70612 16.382792 13.0625 17 C 13.421462 17.6185 14.226542 17.796462 14.84375 17.4375 C 15.462249 17.08112 15.66888 16.304709 15.3125 15.6875 C 15.045215 15.224594 14.530594 15.000642 14.03125 15.0625 z M 24.15625 15.0625 C 23.800499 15.132377 23.504247 15.341047 23.3125 15.6875 C 22.962577 16.307291 23.122202 17.08112 23.71875 17.4375 C 24.33725 17.79388 25.142328 17.617208 25.5 17 C 25.857672 16.384083 25.651041 15.57513 25.03125 15.21875 C 24.87727 15.129655 24.697395 15.083019 24.53125 15.0625 C 24.406641 15.047111 24.274834 15.039209 24.15625 15.0625 z M 10.25 18.75 C 9.8781399 18.819608 9.5129635 19.090321 9.3125 19.4375 C 8.9561201 20.054708 9.1978739 20.83112 9.8125 21.1875 C 10.432291 21.545172 11.20612 21.338541 11.5625 20.71875 C 11.917588 20.101541 11.740917 19.295172 11.125 18.9375 C 10.970375 18.848405 10.791508 18.770619 10.625 18.75 C 10.500119 18.734538 10.373953 18.726802 10.25 18.75 z M 27.90625 18.75 C 27.740267 18.770617 27.588897 18.848404 27.4375 18.9375 C 26.819 19.296462 26.611078 20.102833 26.96875 20.71875 C 27.326422 21.334667 28.101542 21.546462 28.71875 21.1875 C 29.335958 20.832411 29.546462 20.054708 29.1875 19.4375 C 28.922151 18.974593 28.404202 18.688142 27.90625 18.75 z M 9.09375 23.84375 C 8.3784079 23.84375 7.8125 24.444782 7.8125 25.15625 C 7.8125 25.870301 8.3822817 26.4375 9.09375 26.4375 C 9.8065095 26.4375 10.404959 25.86901 10.40625 25.15625 C 10.404956 24.44349 9.8078009 23.845041 9.09375 23.84375 z M 29.4375 23.84375 C 28.722158 23.846363 28.15625 24.446073 28.15625 25.15625 C 28.157557 25.86901 28.723449 26.4375 29.4375 26.4375 C 30.15026 26.438807 30.75 25.870301 30.75 25.15625 C 30.75 24.444782 30.15026 23.84375 29.4375 23.84375 z M 10.3125 28.9375 C 10.145871 28.960133 9.9671249 29.094854 9.8125 29.1875 C 9.1952917 29.537424 8.954829 30.307119 9.3125 30.90625 C 9.6662972 31.524749 10.510374 31.730089 11.125 31.375 C 11.7435 31.025076 11.95013 30.212249 11.59375 29.59375 C 11.326465 29.131813 10.812388 28.86959 10.3125 28.9375 z M 27.875 29 C 27.514974 29.057129 27.16776 29.258918 26.96875 29.59375 C 26.614952 30.208376 26.819 31.01862 27.4375 31.375 C 28.053417 31.728798 28.832411 31.522167 29.1875 30.90625 C 29.537423 30.28775 29.323047 29.525803 28.71875 29.1875 C 28.563802 29.100019 28.385642 29.020054 28.21875 29 C 28.093581 28.984964 27.995009 28.98096 27.875 29 z M 14.125 32.65625 C 14.043371 32.65905 13.923483 32.66608 13.84375 32.6875 C 13.524816 32.773208 13.241982 33.003896 13.0625 33.3125 C 12.707412 33.931 12.946583 34.707411 13.5625 35.0625 C 14.179708 35.412424 14.958702 35.199338 15.3125 34.59375 C 15.670172 33.97525 15.460958 33.201422 14.84375 32.84375 C 14.612297 32.710592 14.36989 32.647981 14.125 32.65625 z M 24.1875 32.6875 C 24.021274 32.70794 23.873053 32.754971 23.71875 32.84375 C 23.100251 33.201422 22.857205 33.976542 23.21875 34.59375 C 23.572548 35.209667 24.414041 35.421462 25.03125 35.0625 C 25.648458 34.707411 25.857672 33.918088 25.5 33.3125 C 25.231748 32.849593 24.686178 32.626187 24.1875 32.6875 z M 19.28125 34.03125 C 18.56849 34.03125 17.96875 34.59845 17.96875 35.3125 C 17.96875 36.026551 18.56849 36.625 19.28125 36.625 C 19.99401 36.625 20.5625 36.026551 20.5625 35.3125 C 20.5625 34.59845 19.99401 34.03125 19.28125 34.03125 z M 45.34375 34.59375 L 32.71875 47.34375 L 28 42.625 L 23.71875 46.9375 L 32.53125 55.875 L 49.5625 38.84375 L 45.34375 34.59375 z "
     transform="matrix(3.5549456,0,0,3.5549456,-57.630623,-85.050263)"
     id="path6" /></g>
</svg>