<?xml version="1.0" encoding="UTF-8" standalone="no"?>
<svg
   xmlns:dc="http://purl.org/dc/elements/1.1/"
   xmlns:cc="http://creativecommons.org/ns#"
   xmlns:rdf="http://www.w3.org/1999/02/22-rdf-syntax-ns#"
   xmlns:svg="http://www.w3.org/2000/svg"
   xmlns="http://www.w3.org/2000/svg"
   xmlns:sodipodi="http://sodipodi.sourceforge.net/DTD/sodipodi-0.dtd"
   xmlns:inkscape="http://www.inkscape.org/namespaces/inkscape"
   version="1.1"
   id="Layer_1"
   x="0px"
   y="0px"
   width="32px"
   height="32px"
   viewBox="0 0 32 32"
   enable-background="new 0 0 32 32"
   xml:space="preserve"
   inkscape:version="0.48.2 r9819"
   sodipodi:docname="timeTillPause.svg"><metadata
   id="metadata8"><rdf:RDF><cc:Work
       rdf:about=""><dc:format>image/svg+xml</dc:format><dc:type
         rdf:resource="http://purl.org/dc/dcmitype/StillImage" /><dc:title /></cc:Work></rdf:RDF></metadata><defs
   id="defs6" /><sodipodi:namedview
   pagecolor="#ffffff"
   bordercolor="#666666"
   borderopacity="1"
   objecttolerance="10"
   gridtolerance="10"
   guidetolerance="10"
   inkscape:pageopacity="0"
   inkscape:pageshadow="2"
   inkscape:window-width="1920"
   inkscape:window-height="1028"
   id="namedview4"
   showgrid="false"
   inkscape:zoom="7.375"
   inkscape:cx="-5.1525424"
   inkscape:cy="16"
   inkscape:window-x="-8"
   inkscape:window-y="-8"
   inkscape:window-maximized="1"
   inkscape:current-layer="Layer_1" />
<path
   d="M 18.875 8.6875 C 10.492226 8.8180594 3.424332 15.301651 2.6875 23.84375 C 1.906544 32.954071 8.6421766 40.995295 17.75 41.78125 C 26.862821 42.562206 34.870295 35.765322 35.65625 26.65625 C 35.74871 25.572908 35.73496 24.539609 35.625 23.5 L 31.53125 22 C 31.894863 23.380732 32.063702 24.808066 31.9375 26.3125 C 31.322731 33.358598 25.111098 38.626025 18.0625 38.03125 C 11.016403 37.412732 5.811474 31.203598 6.40625 24.15625 C 7.023518 17.107652 13.171402 11.903974 20.21875 12.5 C 23.252609 12.766149 25.967015 14.071987 28 16.03125 L 25.96875 17.75 L 34.75 20.9375 L 33.09375 11.71875 L 30.875 13.625 C 28.209753 10.937261 24.632218 9.0998687 20.5625 8.75 C 19.99373 8.701112 19.433853 8.678797 18.875 8.6875 z M 19.15625 14.15625 C 18.466509 14.15625 17.9375 14.68526 17.9375 15.375 L 17.34375 24.59375 L 13.5625 27.03125 C 12.965224 27.37737 12.77888 28.156472 13.125 28.75 C 13.468621 29.348524 14.248974 29.53362 14.84375 29.1875 L 18.9375 27.09375 C 19.00497 27.10375 19.085027 27.125 19.15625 27.125 C 20.19211 27.1262 21.03125 26.25586 21.03125 25.21875 L 20.40625 15.375 C 20.40625 14.68526 19.84599 14.15625 19.15625 14.15625 z M 14.09375 15.5 C 13.932678 15.51995 13.774319 15.538775 13.625 15.625 C 13.027725 15.96987 12.81138 16.777725 13.15625 17.375 C 13.50362 17.973525 14.246475 18.15987 14.84375 17.8125 C 15.442276 17.46763 15.68862 16.722275 15.34375 16.125 C 15.085097 15.677044 14.576967 15.440139 14.09375 15.5 z M 23.875 15.5 C 23.524709 15.56257 23.185555 15.789736 23 16.125 C 22.661378 16.724775 22.891467 17.46763 23.46875 17.8125 C 24.067275 18.15737 24.84138 17.972276 25.1875 17.375 C 25.53362 16.778974 25.287275 15.96987 24.6875 15.625 C 24.538494 15.53878 24.41078 15.519855 24.25 15.5 C 24.129416 15.4851 23.991764 15.47915 23.875 15.5 z M 10.4375 19.09375 C 10.078715 19.15606 9.75649 19.351533 9.5625 19.6875 C 9.21763 20.284775 9.4364726 21.092629 10.03125 21.4375 C 10.631025 21.78362 11.34263 21.568525 11.6875 20.96875 C 12.031121 20.371476 11.846026 19.59612 11.25 19.25 C 11.100369 19.16378 10.973632 19.113704 10.8125 19.09375 C 10.691653 19.07878 10.557096 19.07298 10.4375 19.09375 z M 27.5 19.09375 C 27.339376 19.1137 27.177757 19.163785 27.03125 19.25 C 26.432724 19.59737 26.278881 20.372724 26.625 20.96875 C 26.97112 21.564776 27.683974 21.78487 28.28125 21.4375 C 28.878525 21.093878 29.12862 20.284775 28.78125 19.6875 C 28.524471 19.239543 27.98187 19.03389 27.5 19.09375 z M 9.3125 24 C 8.620261 24 8.0625 24.530258 8.0625 25.21875 C 8.0625 25.90974 8.624009 26.5 9.3125 26.5 C 10.00224 26.5 10.592501 25.908489 10.59375 25.21875 C 10.59245 24.529009 10.00349 24.00125 9.3125 24 z M 29 24 C 28.307761 24.0025 27.78125 24.531508 27.78125 25.21875 C 27.78245 25.908489 28.309011 26.5 29 26.5 C 29.689741 26.5013 30.25 25.90974 30.25 25.21875 C 30.25 24.530258 29.689741 24 29 24 z M 10.5 28.90625 C 10.338753 28.92816 10.180881 29.035346 10.03125 29.125 C 9.4339746 29.463623 9.216381 30.232718 9.5625 30.8125 C 9.904871 31.411023 10.655224 31.624871 11.25 31.28125 C 11.848525 30.942627 12.09487 30.129775 11.75 29.53125 C 11.491347 29.084231 10.983745 28.840532 10.5 28.90625 z M 27.46875 28.96875 C 27.12035 29.02404 26.817584 29.207231 26.625 29.53125 C 26.282629 30.126026 26.432724 30.93638 27.03125 31.28125 C 27.627275 31.62362 28.437629 31.408525 28.78125 30.8125 C 29.119873 30.213975 28.86603 29.452377 28.28125 29.125 C 28.131306 29.04035 27.974003 28.988157 27.8125 28.96875 C 27.691374 28.9542 27.584883 28.95032 27.46875 28.96875 z M 14.15625 32.5 C 14.07726 32.5027 13.983408 32.54176 13.90625 32.5625 C 13.597616 32.64544 13.329935 32.826362 13.15625 33.125 C 12.812629 33.723524 13.028974 34.500129 13.625 34.84375 C 14.222275 35.182373 15.001379 34.961029 15.34375 34.375 C 15.68987 33.776475 15.441026 33.06487 14.84375 32.71875 C 14.619773 32.589892 14.393231 32.491996 14.15625 32.5 z M 23.90625 32.5625 C 23.745393 32.58228 23.618069 32.632845 23.46875 32.71875 C 22.870226 33.06487 22.650132 33.777724 23 34.375 C 23.342372 34.971025 24.090225 35.191119 24.6875 34.84375 C 25.284775 34.500129 25.53362 33.711028 25.1875 33.125 C 24.927911 32.677043 24.388823 32.503166 23.90625 32.5625 z M 19.15625 33.84375 C 18.466509 33.84375 17.9375 34.40276 17.9375 35.09375 C 17.9375 35.78474 18.466509 36.34375 19.15625 36.34375 C 19.84599 36.34375 20.40625 35.78474 20.40625 35.09375 C 20.40625 34.40276 19.84599 33.84375 19.15625 33.84375 z M 33.0625 37.9375 L 33.0625 49.1875 L 35.875 49.1875 L 35.875 37.9375 L 33.0625 37.9375 z M 38.65625 37.9375 L 38.65625 49.1875 L 41.5 49.1875 L 41.5 37.9375 L 38.65625 37.9375 z "
   id="timeforward" />
</svg>