<?xml version="1.0" encoding="UTF-8" standalone="no"?>
<svg
   xmlns:dc="http://purl.org/dc/elements/1.1/"
   xmlns:cc="http://creativecommons.org/ns#"
   xmlns:rdf="http://www.w3.org/1999/02/22-rdf-syntax-ns#"
   xmlns:svg="http://www.w3.org/2000/svg"
   xmlns="http://www.w3.org/2000/svg"
   xmlns:sodipodi="http://sodipodi.sourceforge.net/DTD/sodipodi-0.dtd"
   xmlns:inkscape="http://www.inkscape.org/namespaces/inkscape"
   version="1.1"
   id="Layer_1"
   x="0px"
   y="0px"
   width="100px"
   height="75.0px"
   viewBox="0 0 1024 768"
   enable-background="new 0 0 1024 768"
   xml:space="preserve"
   inkscape:version="0.48.2 r9819"
   sodipodi:docname="timePassedcyclus.svg"><metadata
   id="metadata19"><rdf:RDF><cc:Work
       rdf:about=""><dc:format>image/svg+xml</dc:format><dc:type
         rdf:resource="http://purl.org/dc/dcmitype/StillImage" /><dc:title /></cc:Work></rdf:RDF></metadata><defs
   id="defs17" /><sodipodi:namedview
   pagecolor="#ffffff"
   bordercolor="#666666"
   borderopacity="1"
   objecttolerance="10"
   gridtolerance="10"
   guidetolerance="10"
   inkscape:pageopacity="0"
   inkscape:pageshadow="2"
   inkscape:window-width="1920"
   inkscape:window-height="1028"
   id="namedview15"
   showgrid="false"
   inkscape:zoom="4.1295036"
   inkscape:cx="50"
   inkscape:cy="37.5"
   inkscape:window-x="-8"
   inkscape:window-y="-8"
   inkscape:window-maximized="1"
   inkscape:current-layer="Layer_1" />
<path
   d="m 278.30729,-0.38019716 c -13.62566,0 -22.97436,10.98972616 -22.97436,24.61538516 0,13.44617 5.74359,24.317952 26.25641,24.615384 97.43591,1.333353 182.15385,83.276928 182.15385,185.435898 0,102.97433 -84.10254,188.71795 -187.07693,188.71795 -98.27181,0 -179.897416,-74.87178 -187.076916,-172.30769 l 42.666666,0 -67.282046,-109.94872 -65.64103027,109.94872 41.02564027,0 c 7.26667,123.07692 109.164116,221.53846 234.666666,221.53846 130.19488,0 236.30769,-106.11796 236.30769,-236.30769 0,-128.66156 -103.2923,-233.8513042 -231.38462,-236.30769716 -0.52308,-0.03077 -1.10255,0 -1.64102,0 z M 276.66626,91.517239 c -11.59997,0 -21.33333,11.379471 -21.33333,22.974361 l 0,123.07692 -60.71795,60.71795 c -8.97433,8.96924 -8.50256,23.84618 0,32.82051 8.50256,8.96925 23.85127,8.96925 32.82051,0 l 67.28206,-67.28205 c 0.52308,-0.52822 1.17434,-1.07693 1.64102,-1.64102 3.70767,-3.7846 4.92308,-9.05642 4.92308,-14.76923 l 0,-132.92308 c 0,-11.59489 -9.73845,-22.974361 -21.33334,-22.974361 l -3.28205,0 z m 96.82052,39.384611 c -8.17951,0 -14.76923,6.58973 -14.76923,14.76924 0,8.1795 6.58972,14.76923 14.76923,14.76923 8.1795,0 14.76923,-6.58973 14.76923,-14.76923 0,-8.17951 -6.58973,-14.76924 -14.76923,-14.76924 z m 34.46153,90.25642 c -8.17666,0 -16.41025,6.59256 -16.41025,14.76923 0,8.17666 8.23359,14.76923 16.41025,14.76923 8.17667,0 14.76924,-6.59257 14.76924,-14.76923 0,-8.17667 -6.59257,-14.76923 -14.76924,-14.76923 z m -34.46153,86.97436 c -8.17951,0 -14.76923,6.58972 -14.76923,14.76923 0,8.1795 6.58972,14.76923 14.76923,14.76923 8.1795,0 14.76923,-6.58973 14.76923,-14.76923 0,-8.17951 -6.58973,-14.76923 -14.76923,-14.76923 z m -96.82052,45.94871 c -8.1795,0 -14.76923,6.58973 -14.76923,14.76923 0,8.17951 6.58973,16.41026 14.76923,16.41026 8.17951,0 14.76923,-8.23075 14.76923,-16.41026 0,-8.1795 -6.58972,-14.76923 -14.76923,-14.76923 z"
   id="path3"
   inkscape:connector-curvature="0" />





</svg>