<?xml version="1.0" encoding="UTF-8" standalone="no"?>
<svg
   xmlns:dc="http://purl.org/dc/elements/1.1/"
   xmlns:cc="http://creativecommons.org/ns#"
   xmlns:rdf="http://www.w3.org/1999/02/22-rdf-syntax-ns#"
   xmlns:svg="http://www.w3.org/2000/svg"
   xmlns="http://www.w3.org/2000/svg"
   xmlns:sodipodi="http://sodipodi.sourceforge.net/DTD/sodipodi-0.dtd"
   xmlns:inkscape="http://www.inkscape.org/namespaces/inkscape"
   version="1.1"
   id="Layer_1"
   x="0px"
   y="0px"
   width="32px"
   height="32px"
   viewBox="0 0 32 32"
   enable-background="new 0 0 32 32"
   xml:space="preserve"
   inkscape:version="0.48.2 r9819"
   sodipodi:docname="timePassedcyclus.svg"><metadata
   id="metadata8"><rdf:RDF><cc:Work
       rdf:about=""><dc:format>image/svg+xml</dc:format><dc:type
         rdf:resource="http://purl.org/dc/dcmitype/StillImage" /><dc:title /></cc:Work></rdf:RDF></metadata><defs
   id="defs6" /><sodipodi:namedview
   pagecolor="#ffffff"
   bordercolor="#666666"
   borderopacity="1"
   objecttolerance="10"
   gridtolerance="10"
   guidetolerance="10"
   inkscape:pageopacity="0"
   inkscape:pageshadow="2"
   inkscape:window-width="1920"
   inkscape:window-height="1028"
   id="namedview4"
   showgrid="false"
   inkscape:zoom="7.375"
   inkscape:cx="-5.1525424"
   inkscape:cy="16"
   inkscape:window-x="-8"
   inkscape:window-y="-8"
   inkscape:window-maximized="1"
   inkscape:current-layer="Layer_1" />
<path
   d="M 19.8125 8.5 C 18.847205 8.5 18.1875 9.2847054 18.1875 10.25 C 18.1875 11.202579 18.578041 11.94768 20.03125 11.96875 C 26.933986 12.06321 32.96875 17.856413 32.96875 25.09375 C 32.96875 32.388849 27.013854 38.5 19.71875 38.5 C 12.756795 38.5 6.977374 33.152735 6.46875 26.25 L 9.46875 26.25 L 4.71875 18.46875 L 0.0625 26.25 L 2.9375 26.25 C 3.452299 34.969244 10.671415 41.96875 19.5625 41.96875 C 28.786008 41.96875 36.34375 34.441893 36.34375 25.21875 C 36.34375 16.103866 29.012056 8.6740213 19.9375 8.5 C 19.90045 8.49784 19.85065 8.5 19.8125 8.5 z M 19.71875 15 C 18.896963 15 18.1875 15.803573 18.1875 16.625 L 18.1875 25.375 L 13.875 29.625 C 13.239224 30.260416 13.272645 31.332973 13.875 31.96875 C 14.477354 32.604167 15.552083 32.604167 16.1875 31.96875 L 21 27.1875 C 21.03705 27.15009 21.06069 27.13371 21.09375 27.09375 C 21.356415 26.825634 21.4375 26.435967 21.4375 26.03125 L 21.4375 16.625 C 21.4375 15.803573 20.758928 15 19.9375 15 L 19.71875 15 z M 26.34375 17.78125 C 25.866196 17.87853 25.53125 18.336717 25.53125 18.84375 C 25.53125 19.423219 25.983031 19.90625 26.5625 19.90625 C 27.141968 19.90625 27.625 19.423219 27.625 18.84375 C 27.625 18.264284 27.141968 17.78125 26.5625 17.78125 C 26.49007 17.78125 26.411972 17.76735 26.34375 17.78125 z M 29 24.1875 C 28.420733 24.1875 27.84375 24.639483 27.84375 25.21875 C 27.84375 25.798016 28.420733 26.25 29 26.25 C 29.579266 26.25 30.0625 25.798016 30.0625 25.21875 C 30.0625 24.639483 29.579266 24.1875 29 24.1875 z M 26.5625 30.34375 C 25.983031 30.34375 25.53125 30.826782 25.53125 31.40625 C 25.53125 31.985717 25.983031 32.4375 26.5625 32.4375 C 27.141968 32.4375 27.625 31.985717 27.625 31.40625 C 27.625 30.826782 27.141968 30.34375 26.5625 30.34375 z M 19.71875 33.59375 C 19.139282 33.59375 18.625 34.076782 18.625 34.65625 C 18.625 35.235718 19.139282 35.8125 19.71875 35.8125 C 20.298218 35.8125 20.75 35.235718 20.75 34.65625 C 20.75 34.076782 20.298218 33.59375 19.71875 33.59375 z "
   id="path3" />
</svg>