<?xml version="1.0" encoding="UTF-8" standalone="no"?>
<svg
   xmlns:dc="http://purl.org/dc/elements/1.1/"
   xmlns:cc="http://creativecommons.org/ns#"
   xmlns:rdf="http://www.w3.org/1999/02/22-rdf-syntax-ns#"
   xmlns:svg="http://www.w3.org/2000/svg"
   xmlns="http://www.w3.org/2000/svg"
   xmlns:sodipodi="http://sodipodi.sourceforge.net/DTD/sodipodi-0.dtd"
   xmlns:inkscape="http://www.inkscape.org/namespaces/inkscape"
   version="1.1"
   id="Layer_1"
   x="0px"
   y="0px"
   width="32px"
   height="32px"
   viewBox="0 0 32 32"
   enable-background="new 0 0 32 32"
   xml:space="preserve"
   inkscape:version="0.48.2 r9819"
   sodipodi:docname="timeTillFinished.svg"><metadata
   id="metadata8"><rdf:RDF><cc:Work
       rdf:about=""><dc:format>image/svg+xml</dc:format><dc:type
         rdf:resource="http://purl.org/dc/dcmitype/StillImage" /><dc:title></dc:title></cc:Work></rdf:RDF></metadata><defs
   id="defs6" /><sodipodi:namedview
   pagecolor="#ffffff"
   bordercolor="#666666"
   borderopacity="1"
   objecttolerance="10"
   gridtolerance="10"
   guidetolerance="10"
   inkscape:pageopacity="0"
   inkscape:pageshadow="2"
   inkscape:window-width="1920"
   inkscape:window-height="1028"
   id="namedview4"
   showgrid="false"
   inkscape:zoom="7.375"
   inkscape:cx="-5.1525424"
   inkscape:cy="16"
   inkscape:window-x="-8"
   inkscape:window-y="-8"
   inkscape:window-maximized="1"
   inkscape:current-layer="Layer_1" />

<g
   transform="matrix(0.29411765,0,0,0.29411765,14.717846,16.561319)"
   id="Your_Icon"><path
     style="fill-rule:evenodd"
     d="M 9.8899661,-56.458886 C -20.90488,-55.979262 -46.933101,-32.182168 -49.639918,-0.80203016 -52.508828,32.665527 -27.72833,62.152185 5.7300471,65.039457 39.206785,67.908367 68.684262,42.989013 71.571533,9.5260458 71.911212,5.5462938 71.83203,1.7260538 71.428088,-2.0930392 l -15.061778,-5.45093 c 1.335764,5.072233 1.898071,10.395783 1.434455,15.922451 C 55.542359,34.262937 32.771246,53.45365 6.8776111,51.268688 -19.006843,48.996511 -38.197557,26.234579 -36.012595,0.34553384 -33.745008,-25.5481 -10.978485,-44.734224 14.910559,-42.544672 c 11.145142,0.977725 20.933863,5.85602 28.40221,13.053541 l -7.459166,6.311602 32.275238,11.619086 -6.024711,-33.709693 -8.176394,6.885384 C 44.13672,-48.258393 31.008587,-55.030168 16.058123,-56.31544 c -2.089425,-0.179594 -4.115164,-0.17542 -6.1681569,-0.143446 z m 1.0041189,20.082371 c -2.5338209,0 -4.5902559,2.056435 -4.5902559,4.590256 L 4.1521461,1.9234348 -9.618622,10.960501 c -2.194142,1.271501 -2.992847,3.987785 -1.721346,6.168157 1.26232,2.198733 4.1266402,2.992847 6.3116021,1.721346 L 10.176857,11.103947 c 0.247874,0.03672 0.455583,0.143445 0.717228,0.143445 3.805322,0.0046 6.885384,-3.0754712 6.885384,-6.8853842 L 15.484341,-31.786259 c 0,-2.533821 -2.056435,-4.590256 -4.590256,-4.590256 z m -18.6479155,4.877147 c -0.5917115,0.0733 -1.1728104,0.257054 -1.721346,0.573782 -2.1941425,1.266911 -2.9882565,4.11746 -1.7213465,6.311602 1.2760916,2.198733 4.1174602,2.853992 6.3116026,1.577901 2.1987327,-1.266911 2.9882568,-3.974014 1.7213461,-6.168157 -0.950183,-1.645607 -2.8151169,-2.51503 -4.5902562,-2.295128 z m 37.2958315,0 c -1.771913,-0.218826 -3.53794,0.652964 -4.446811,2.295128 -1.243959,2.203323 -0.542798,4.901246 1.5779,6.168157 2.198733,1.266911 5.040102,0.616242 6.311603,-1.577901 1.271501,-2.189552 0.481977,-5.044691 -1.721346,-6.311602 -0.547388,-0.316728 -1.130709,-0.50084 -1.721346,-0.573782 z m -49.345254,13.196987 c -1.775784,-0.219901 -3.640073,0.649521 -4.590256,2.295128 -1.266911,2.194142 -0.463616,5.044691 1.721346,6.3116018 2.203323,1.271501 4.901246,0.481977 6.168157,-1.7213458 1.26232,-2.194143 0.611651,-5.040102 -1.577901,-6.311602 -0.549683,-0.316728 -1.129418,-0.500481 -1.721346,-0.573782 z m 61.394676,0 c -0.590064,0.0733 -1.183139,0.257054 -1.721346,0.573782 -2.198733,1.276091 -2.849402,4.12205 -1.577901,6.311602 1.271501,2.1895518 3.974015,2.9974368 6.168157,1.7213458 2.194142,-1.2623208 2.997437,-4.1174598 1.721346,-6.3116018 -0.943298,-1.645607 -2.820065,-2.515029 -4.590256,-2.295128 z m -66.845605,18.07413284 c -2.543002,0 -4.590256,2.06102496 -4.590256,4.59025596 0,2.538412 2.061025,4.590256 4.590256,4.590256 2.533821,0 4.585666,-2.056434 4.590256,-4.590256 -0.0046,-2.533821 -2.051844,-4.58566596 -4.590256,-4.59025596 z m 72.296534,0 c -2.543002,0.0092 -4.590256,2.06561496 -4.590256,4.59025596 0.0046,2.533822 2.051844,4.590256 4.590256,4.590256 2.533821,0.0046 4.590256,-2.051844 4.590256,-4.590256 0,-2.529231 -2.056435,-4.59025596 -4.590256,-4.59025596 z M -20.950817,17.845886 c -0.592358,0.08047 -1.171663,0.387876 -1.721346,0.717227 -2.194142,1.24396 -2.992847,4.038278 -1.721346,6.168157 1.25773,2.198732 4.12664,2.983666 6.311602,1.721346 2.198733,-1.24396 2.988257,-4.11287 1.721346,-6.311602 -0.950183,-1.642164 -2.813181,-2.536548 -4.590256,-2.295128 z m 63.689804,0.143445 c -1.779872,-0.213878 -3.503513,0.564602 -4.446811,2.151683 -1.25773,2.184962 -0.620832,5.044691 1.577901,6.311602 2.189552,1.25773 5.049282,0.468206 6.311602,-1.721346 1.243959,-2.198733 0.426894,-4.96551 -1.721346,-6.168157 -0.550831,-0.31099 -1.128055,-0.502491 -1.721346,-0.573782 z M -8.3276125,31.186317 c -1.1337932,0.304679 -2.2308645,1.054612 -2.8689105,2.151683 -1.26232,2.198733 -0.468206,5.049282 1.7213465,6.311602 2.1941424,1.24396 5.053872,0.431484 6.3116022,-1.721346 1.2715009,-2.198733 0.4727964,-4.896656 -1.7213461,-6.168157 -1.0970712,-0.63116 -2.3088988,-0.87846 -3.4426921,-0.573782 z m 36.7220495,0 c -0.590923,0.07266 -1.172811,0.258202 -1.721347,0.573782 -2.198732,1.271501 -3.006617,3.974015 -1.721346,6.168157 1.257731,2.189552 4.11746,2.997437 6.311603,1.721346 2.194142,-1.26232 2.992847,-4.158772 1.721346,-6.311602 -0.953626,-1.645607 -2.817486,-2.369646 -4.590256,-2.151683 z m -17.500352,4.733702 c -2.5338209,0 -4.5902559,2.051845 -4.5902559,4.590256 0,2.538412 2.056435,4.590256 4.5902559,4.590256 2.533821,0 4.590256,-2.051844 4.590256,-4.590256 0,-2.538411 -2.056435,-4.590256 -4.590256,-4.590256 z M 103.55988,37.928256 58.661438,83.257036 41.878314,66.473912 26.67309,81.822581 58.087656,113.52404 118.47821,52.990034 103.55988,37.928256 z"
     id="path6"
     inkscape:connector-curvature="0" /></g></svg>