<?xml version="1.0" encoding="UTF-8" standalone="no"?>
<!-- Created with Inkscape (http://www.inkscape.org/) -->

<svg
   xmlns:dc="http://purl.org/dc/elements/1.1/"
   xmlns:cc="http://creativecommons.org/ns#"
   xmlns:rdf="http://www.w3.org/1999/02/22-rdf-syntax-ns#"
   xmlns:svg="http://www.w3.org/2000/svg"
   xmlns="http://www.w3.org/2000/svg"
   xmlns:sodipodi="http://sodipodi.sourceforge.net/DTD/sodipodi-0.dtd"
   xmlns:inkscape="http://www.inkscape.org/namespaces/inkscape"
   width="744.09448819"
   height="1052.3622047"
   id="svg7421"
   version="1.1"
   inkscape:version="0.48.2 r9819"
   sodipodi:docname="workpieceWidth.svg">
  <defs
     id="defs7423">
    <inkscape:perspective
       sodipodi:type="inkscape:persp3d"
       inkscape:vp_x="-223.22834 : 105.23622 : 0"
       inkscape:vp_y="3.6738191e-014 : 600 : 0"
       inkscape:vp_z="223.22834 : 105.23622 : 0"
       inkscape:persp3d-origin="98.351391 : 740.42643 : 1"
       id="perspective2985-5" />
    <inkscape:perspective
       sodipodi:type="inkscape:persp3d"
       inkscape:vp_x="-372.04724 : 175.3937 : 0"
       inkscape:vp_y="6.1230318e-014 : 1000 : 0"
       inkscape:vp_z="372.04724 : 175.3937 : 0"
       inkscape:persp3d-origin="168.34459 : 446.82514 : 1"
       id="perspective2985-5-4" />
    <inkscape:perspective
       sodipodi:type="inkscape:persp3d"
       inkscape:vp_x="-372.04724 : 175.3937 : 0"
       inkscape:vp_y="6.1230318e-014 : 1000 : 0"
       inkscape:vp_z="372.04724 : 175.3937 : 0"
       inkscape:persp3d-origin="179.45627 : 365.50786 : 1"
       id="perspective2985-5-1" />
    <inkscape:perspective
       sodipodi:type="inkscape:persp3d"
       inkscape:vp_x="-223.22834 : 105.23622 : 0"
       inkscape:vp_y="3.6738191e-014 : 600 : 0"
       inkscape:vp_z="223.22834 : 105.23622 : 0"
       inkscape:persp3d-origin="316.87712 : 686.82543 : 1"
       id="perspective2985-5-17" />
  </defs>
  <sodipodi:namedview
     id="base"
     pagecolor="#ffffff"
     bordercolor="#666666"
     borderopacity="1.0"
     inkscape:pageopacity="0.0"
     inkscape:pageshadow="2"
     inkscape:zoom="5.6"
     inkscape:cx="24.784533"
     inkscape:cy="1030.5734"
     inkscape:document-units="px"
     inkscape:current-layer="layer1"
     showgrid="false"
     inkscape:window-width="1920"
     inkscape:window-height="1028"
     inkscape:window-x="-8"
     inkscape:window-y="-8"
     inkscape:window-maximized="1" />
  <metadata
     id="metadata7426">
    <rdf:RDF>
      <cc:Work
         rdf:about="">
        <dc:format>image/svg+xml</dc:format>
        <dc:type
           rdf:resource="http://purl.org/dc/dcmitype/StillImage" />
        <dc:title />
      </cc:Work>
    </rdf:RDF>
  </metadata>
  <g
     inkscape:label="Layer 1"
     inkscape:groupmode="layer"
     id="layer1">
    <a
       transform="matrix(0.6,0,0,0.6,-223.67408,-149.56376)"
       id="a7194-8-40">
      <g
         inkscape:corner7="0.37070036 : 0.3740151 : 0.14570964 : 1"
         inkscape:corner0="0.43843565 : 0.40119652 : 0 : 1"
         inkscape:perspectiveID="#perspective2985-5-17"
         id="g2987-9-9"
         style="fill:none;stroke:#00ff00;stroke-width:2;stroke-miterlimit:4;stroke-opacity:1;stroke-dasharray:none"
         sodipodi:type="inkscape:box3d">
        <path
           style="fill:#000000;fill-opacity:1;fill-rule:evenodd;stroke:#ffffff;stroke-width:0;stroke-miterlimit:4;stroke-dasharray:none"
           d="M 32.6875 0.125 A 0.30003 0.30003 0 0 0 32.625 0.15625 A 0.30003 0.30003 0 0 0 32.4375 0.40625 A 0.30003 0.30003 0 0 0 32.4375 0.4375 L 32.4375 9.78125 L 0.375 24.875 L 15.0625 31.875 L 47.15625 16.71875 A 0.30003 0.30003 0 0 0 47.46875 16.90625 A 0.30003 0.30003 0 0 0 47.65625 16.8125 A 0.30003 0.30003 0 0 0 47.71875 16.59375 A 0.30003 0.30003 0 0 0 47.71875 16.5625 L 47.71875 7.03125 A 0.30003 0.30003 0 0 0 47.625 6.78125 A 0.30003 0.30003 0 0 0 47.4375 6.71875 A 0.30003 0.30003 0 0 0 47.25 6.78125 A 0.30003 0.30003 0 0 0 47.125 7.03125 L 47.125 9.53125 L 46.59375 9.09375 L 43.59375 6.5 L 42.78125 5.8125 L 43.15625 6.8125 L 43.46875 7.6875 L 37.125 4.5625 L 37.78125 4.34375 L 38.78125 3.96875 L 37.71875 3.8125 L 33.8125 3.21875 L 33.03125 3.09375 L 33.03125 0.4375 A 0.30003 0.30003 0 0 0 33.03125 0.40625 A 0.30003 0.30003 0 0 0 32.875 0.15625 A 0.30003 0.30003 0 0 0 32.6875 0.125 z M 33.03125 3.21875 L 33.5625 3.6875 L 36.59375 6.28125 L 37.375 6.96875 L 37.03125 5.96875 L 36.65625 5 L 43.125 8.15625 L 42.375 8.4375 L 41.40625 8.78125 L 42.4375 8.96875 L 46.375 9.59375 L 47.125 9.6875 L 47.125 16.5625 A 0.30003 0.30003 0 0 0 47.125 16.59375 L 33.03125 9.96875 L 33.03125 3.21875 z M 47.65625 17.125 L 15.375 32.375 L 15.375 48.34375 L 47.65625 33.15625 L 47.65625 17.125 z M 0 25.34375 L 0 41.375 L 14.78125 48.34375 L 14.78125 32.40625 L 0 25.34375 z "
           transform="matrix(1.6666667,0,0,1.6666667,372.79013,249.27293)"
           id="path2991-7-2" />
      </g>
    </a>
  </g>
</svg>
