<?xml version="1.0" encoding="UTF-8" standalone="no"?>
<!-- Created with Inkscape (http://www.inkscape.org/) -->

<svg
   xmlns:dc="http://purl.org/dc/elements/1.1/"
   xmlns:cc="http://creativecommons.org/ns#"
   xmlns:rdf="http://www.w3.org/1999/02/22-rdf-syntax-ns#"
   xmlns:svg="http://www.w3.org/2000/svg"
   xmlns="http://www.w3.org/2000/svg"
   xmlns:sodipodi="http://sodipodi.sourceforge.net/DTD/sodipodi-0.dtd"
   xmlns:inkscape="http://www.inkscape.org/namespaces/inkscape"
   width="744.09448819"
   height="1052.3622047"
   id="svg7421"
   version="1.1"
   inkscape:version="0.48.2 r9819"
   sodipodi:docname="workpieceHeight.svg">
  <defs
     id="defs7423">
    <inkscape:perspective
       sodipodi:type="inkscape:persp3d"
       inkscape:vp_x="-372.04724 : 175.3937 : 0"
       inkscape:vp_y="6.1230318e-014 : 1000 : 0"
       inkscape:vp_z="372.04724 : 175.3937 : 0"
       inkscape:persp3d-origin="163.7989 : 533.19318 : 1"
       id="perspective2985-5" />
    <inkscape:perspective
       sodipodi:type="inkscape:persp3d"
       inkscape:vp_x="-372.04724 : 175.3937 : 0"
       inkscape:vp_y="6.1230318e-014 : 1000 : 0"
       inkscape:vp_z="372.04724 : 175.3937 : 0"
       inkscape:persp3d-origin="168.34459 : 446.82514 : 1"
       id="perspective2985-5-4" />
    <inkscape:perspective
       sodipodi:type="inkscape:persp3d"
       inkscape:vp_x="-223.22834 : 105.23622 : 0"
       inkscape:vp_y="3.6738191e-014 : 600 : 0"
       inkscape:vp_z="223.22834 : 105.23622 : 0"
       inkscape:persp3d-origin="107.15587 : 750.02288 : 1"
       id="perspective2985-5-1" />
  </defs>
  <sodipodi:namedview
     id="base"
     pagecolor="#ffffff"
     bordercolor="#666666"
     borderopacity="1.0"
     inkscape:pageopacity="0.0"
     inkscape:pageshadow="2"
     inkscape:zoom="3.959798"
     inkscape:cx="45.33096"
     inkscape:cy="1000.3917"
     inkscape:document-units="px"
     inkscape:current-layer="layer1"
     showgrid="false"
     inkscape:window-width="1920"
     inkscape:window-height="1028"
     inkscape:window-x="-8"
     inkscape:window-y="-8"
     inkscape:window-maximized="1" />
  <metadata
     id="metadata7426">
    <rdf:RDF>
      <cc:Work
         rdf:about="">
        <dc:format>image/svg+xml</dc:format>
        <dc:type
           rdf:resource="http://purl.org/dc/dcmitype/StillImage" />
        <dc:title />
      </cc:Work>
    </rdf:RDF>
  </metadata>
  <g
     inkscape:label="Layer 1"
     inkscape:groupmode="layer"
     id="layer1">
    <path
       style="fill:#000000;fill-opacity:1;fill-rule:evenodd;stroke:#ffffff;stroke-width:0;stroke-miterlimit:4;stroke-opacity:1;stroke-dasharray:none"
       d="M 42.0625 0 L 9.90625 15.125 L 24.5625 22.15625 L 56.78125 6.90625 L 42.0625 0 z M 57.1875 7.375 L 24.90625 22.625 L 24.90625 38.625 L 57.1875 23.4375 L 57.1875 7.375 z M 0.25 11.15625 A 0.3750375 0.3750375 0 0 0 0.25 11.875 L 1.875 12.625 L 1.65625 13.375 L 0.46875 17.1875 L 0.15625 18.15625 L 0.9375 17.4375 L 1.5 16.90625 L 1.5 22.875 L 0.9375 22.28125 L 0.21875 21.53125 L 0.5 22.5625 L 1.5 26.40625 L 1.6875 27.125 L 1 26.78125 A 0.3750375 0.3750375 0 0 0 0.8125 26.75 A 0.3750375 0.3750375 0 0 0 0.65625 27.5 L 9.34375 31.53125 A 0.37791833 0.37791833 0 0 0 9.53125 31.5625 L 9.53125 31.625 L 24.3125 38.59375 L 24.3125 22.65625 L 9.53125 15.625 L 9.53125 30.78125 L 1.78125 27.15625 L 2.03125 26.40625 L 3.1875 22.625 L 3.53125 21.59375 L 2.75 22.34375 L 2.125 22.9375 L 2.125 16.84375 L 2.71875 17.5 L 3.46875 18.25 L 3.1875 17.21875 L 2.1875 13.375 L 2 12.6875 L 8.875 15.90625 A 0.38173637 0.38173637 0 0 0 9.34375 15.34375 A 0.38173637 0.38173637 0 0 0 9.1875 15.21875 L 0.5625 11.1875 A 0.3750375 0.3750375 0 0 0 0.34375 11.15625 A 0.3750375 0.3750375 0 0 0 0.28125 11.15625 A 0.3750375 0.3750375 0 0 0 0.25 11.15625 z "
       id="path2991-7-2-7-4" />
  </g>
</svg>
